<?xml version="1.0" encoding="UTF-8"?>
<svg id="Layer_2" data-name="Layer 2" xmlns="http://www.w3.org/2000/svg" viewBox="0 0 856 856">
  <defs>
    <style>
      .cls-1 {
        fill: #21aa00;
      }

      .cls-1, .cls-2, .cls-3 {
        stroke-width: 0px;
      }

      .cls-2 {
        fill: none;
      }

      .cls-3 {
        fill: #2c7226;
      }
    </style>
  </defs>
  <g id="Layer_1-2" data-name="Layer 1">
    <g>
      <g>
        <g>
          <path class="cls-1" d="M319.98,508.64c-3.89-94.88-37.36-138.19-73.24-170.69-44.04-39.89-99.35-60.7-137.98-71.14-13.76-3.72-26.45-6.42-37.29-8.37,23.34,1.41,55.23,4.8,88.71,12.79,65.45,15.61,112.71,42.61,140.47,80.25,29.96,40.62,36.44,93.44,19.34,157.16Z"/>
          <path class="cls-3" d="M103.12,263.27c17.31,2.04,36.67,5.16,56.6,9.92,29.18,6.96,55.13,16.39,77.1,28.03,26.4,13.98,47.33,31.29,62.21,51.46,14.8,20.07,23.9,43.4,27.03,69.34,2.68,22.21,1.05,46.75-4.84,73.22-6.38-86.42-38.66-127.53-73.14-158.76-44.34-40.16-99.96-61.09-138.8-71.58-2.08-.56-4.13-1.1-6.16-1.62M41.82,255.5c-4.66,0-7.23.09-7.23.09,0,0,126.11,7.13,210.81,83.84,43.44,39.35,71.77,87.01,72.92,182.15C397.28,266.14,93.06,255.5,41.82,255.5h0Z"/>
        </g>
        <g>
          <path class="cls-1" d="M351.07,749.44c-8.66,0-17.03-5.06-19.96-7.02,9.54-38.33-42.16-192.21-48.16-209.84l-.43-1.26-1.33-.09c-28.17-1.96-70.72-7.33-113.47-21.74-51.89-17.49-90.2-43.62-113.87-77.66-31.1-44.73-36.55-103.05-16.21-173.37,6.99.85,35.43,4.78,71.05,16.08,37.7,11.96,91.4,34.85,133.1,76.02,23.02,22.73,38.47,45.37,48.63,71.26,11.9,30.32,17.07,66.66,15.81,111.12v.11s0,.11,0,.11c5.49,70.14,59.86,189.22,64.86,200.03-4.32,10.8-11.05,16.27-20.02,16.27Z"/>
          <path class="cls-3" d="M39.09,260.65c9.08,1.19,35.97,5.3,69.09,15.81,23.88,7.58,46.28,16.95,66.58,27.86,25.3,13.6,47.38,29.63,65.62,47.65,22.81,22.53,38.12,44.95,48.17,70.57,11.8,30.06,16.92,66.15,15.67,110.33v.21s.01.21.01.21c2.42,30.92,14.17,74.25,34.93,128.78,13.47,35.39,26.56,64.22,29.74,71.14-4.03,9.56-9.87,14.22-17.84,14.22-7.2,0-14.28-3.8-17.71-5.94,3.42-17.16-2.78-54.76-18.47-111.89-12.66-46.13-27.25-89.46-30.05-97.67l-.86-2.52-2.65-.18c-28.05-1.96-70.42-7.3-112.97-21.64-51.47-17.35-89.45-43.23-112.87-76.91-30.49-43.86-36.01-101.05-16.4-170.03M36.19,256.27c-69,234.61,163.44,271.27,244.86,276.95,5.15,15.14,58.88,174.7,47.75,210.02,0,0,10.74,8.2,22.27,8.2,8.2,0,16.79-4.15,22.19-18.34,0,0-59.27-126.49-65.04-200.12,2.67-94.26-23.51-142.86-65.03-183.86-81.31-80.29-207-92.86-207-92.86h0Z"/>
        </g>
      </g>
      <g>
        <g>
          <path class="cls-1" d="M391.65,442.1c-27.66-97.97-18.5-179.03,27.27-241.09,41.49-56.25,112.08-96.6,209.8-119.91,58.63-13.99,113.99-18.53,149.27-19.92-19.09,2.92-44.14,7.66-72.2,15.23-57.45,15.51-139.67,46.45-205.14,105.74-54.08,48.98-104.48,114.53-109.01,259.94Z"/>
          <path class="cls-3" d="M744.28,65.22c-12.04,2.48-25.16,5.53-39.01,9.27-57.66,15.57-140.2,46.63-205.96,106.19-52.75,47.78-102.03,111.2-109.12,248.24-11.28-44.55-14.75-85.66-10.3-122.51,4.71-38.98,18.38-74.04,40.63-104.21,22.34-30.28,53.74-56.27,93.33-77.22,32.89-17.41,71.69-31.52,115.32-41.92,42.16-10.06,82.62-15.22,115.1-17.84M805.24,58.63c-76.32,0-529.48,15.85-411.87,396.35,1.72-141.72,43.91-212.72,108.62-271.33,126.16-114.27,314.01-124.89,314.01-124.89,0,0-3.83-.13-10.77-.13h0Z"/>
        </g>
        <g>
          <path class="cls-1" d="M344.6,795.37c-13.9,0-24.29-8.49-30.88-25.24,6.19-13.36,88.46-192.79,96.7-298.01v-.11s0-.11,0-.11c-1.88-66.35,5.85-120.62,23.61-165.9,15.18-38.69,38.27-72.53,72.66-106.49,62.26-61.48,142.41-95.65,198.69-113.5,54.64-17.32,97.96-23.03,106.79-24.07,30.66,105.41,22.57,192.84-24.04,259.88-35.38,50.88-92.61,89.93-170.11,116.06-63.77,21.5-127.25,29.51-169.27,32.44l-1.33.09-.43,1.26c-8.96,26.34-86.47,257.1-71.55,312.68-3.83,2.64-17.08,11.02-30.85,11.02h0Z"/>
          <path class="cls-3" d="M810.73,64.14c15.63,54.35,20.94,104.29,15.79,148.5-4.69,40.25-18.16,76.6-40.02,108.05-35.13,50.52-92.03,89.32-169.11,115.3-63.57,21.43-126.87,29.41-168.77,32.34l-2.65.19-.86,2.52c-4.16,12.24-25.89,76.79-44.73,145.37-23.73,86.42-32.87,142.57-27.21,167.07-4.73,3.09-16.49,9.89-28.57,9.89-12.78,0-22.43-7.8-28.7-23.18,4.02-8.7,24.01-52.5,44.61-106.62,21.21-55.73,47.44-134.16,51.91-191.29l.02-.21v-.21c-1.88-66.08,5.8-120.09,23.47-165.11,15.08-38.42,38.02-72.04,72.21-105.8,27.33-26.99,60.38-50.99,98.25-71.33,30.35-16.31,63.84-30.32,99.54-41.65,51.64-16.38,93.15-22.35,104.83-23.81M813.62,59.77s-187.22,18.72-308.33,138.32c-61.85,61.07-100.85,133.46-96.87,273.87-8.59,109.68-96.88,298.1-96.88,298.1,8.05,21.13,20.85,27.31,33.05,27.31,17.17,0,33.17-12.21,33.17-12.21-16.57-52.62,63.45-290.29,71.13-312.84,121.28-8.46,467.51-63.08,364.73-412.55h0Z"/>
        </g>
      </g>
    </g>
    <rect class="cls-2" width="856" height="856"/>
  </g>
</svg>